<?xml version="1.0" standalone="no"?>
<!DOCTYPE svg PUBLIC "-//W3C//DTD SVG 20010904//EN"
 "http://www.w3.org/TR/2001/REC-SVG-20010904/DTD/svg10.dtd">
<svg version="1.0" xmlns="http://www.w3.org/2000/svg"
 width="2048.000000pt" height="2048.000000pt" viewBox="0 0 2048.000000 2048.000000"
 preserveAspectRatio="xMidYMid meet">
<metadata>
Created by potrace 1.14, written by Peter Selinger 2001-2017
</metadata>
<g transform="translate(0.000000,2048.000000) scale(0.100000,-0.100000)"
fill="#000000" stroke="none">
<path d="M10177 19064 c-1 -1 -99 -5 -217 -8 -279 -9 -420 -17 -530 -31 -19
-2 -66 -7 -105 -10 -38 -3 -81 -8 -95 -10 -14 -2 -50 -6 -80 -9 -30 -3 -64 -8
-76 -10 -12 -2 -45 -7 -75 -11 -30 -4 -67 -8 -84 -11 -16 -2 -70 -10 -120 -19
-49 -9 -103 -18 -120 -21 -99 -17 -351 -70 -475 -100 -80 -20 -152 -37 -160
-39 -94 -20 -431 -119 -575 -168 -187 -64 -360 -126 -410 -147 -11 -5 -81 -34
-155 -64 -190 -77 -296 -124 -472 -209 -84 -40 -156 -73 -159 -73 -3 1 -12 -4
-20 -10 -8 -7 -61 -37 -119 -67 -58 -31 -125 -67 -150 -81 -25 -14 -62 -35
-83 -46 -201 -110 -530 -320 -771 -493 -127 -90 -444 -331 -456 -346 -3 -3
-58 -50 -122 -104 -64 -53 -128 -107 -141 -119 -13 -13 -68 -63 -123 -113
-111 -100 -438 -425 -528 -525 -32 -36 -75 -83 -95 -105 -65 -72 -195 -224
-251 -295 -19 -24 -47 -58 -61 -75 -69 -79 -296 -390 -414 -565 -152 -226
-243 -372 -350 -560 -42 -74 -80 -142 -85 -150 -21 -34 -226 -439 -258 -510
-67 -149 -85 -191 -191 -445 -24 -58 -35 -86 -58 -150 -14 -38 -31 -83 -38
-100 -21 -48 -120 -349 -163 -495 -82 -276 -136 -493 -187 -740 -3 -14 -12
-63 -21 -110 -9 -47 -18 -94 -20 -105 -5 -24 -34 -200 -39 -235 -17 -117 -20
-132 -29 -210 -18 -142 -27 -226 -31 -272 -1 -24 -6 -77 -10 -118 -19 -212
-29 -464 -28 -725 0 -203 9 -523 17 -595 2 -19 7 -79 10 -133 4 -53 9 -112 11
-130 2 -17 6 -59 10 -92 15 -150 39 -327 65 -485 11 -63 22 -133 25 -155 4
-22 8 -48 11 -57 3 -10 7 -30 10 -45 9 -53 35 -178 44 -213 5 -19 12 -49 14
-66 3 -17 26 -109 50 -205 184 -723 464 -1436 808 -2056 45 -81 86 -157 92
-168 12 -22 150 -250 178 -293 10 -15 24 -38 32 -52 15 -27 271 -404 287 -423
5 -7 55 -73 111 -147 55 -74 128 -169 162 -210 57 -71 205 -249 216 -260 3 -3
25 -27 49 -55 226 -255 510 -540 731 -735 47 -41 87 -78 90 -81 9 -10 192
-163 295 -245 254 -204 545 -410 838 -593 98 -61 181 -111 184 -111 3 0 17 -8
31 -19 15 -10 52 -32 82 -48 30 -17 98 -54 150 -83 467 -259 1142 -541 1650
-691 41 -12 95 -28 120 -36 25 -8 52 -16 60 -18 8 -2 105 -26 215 -54 216 -54
275 -68 318 -75 15 -3 35 -7 45 -10 9 -3 28 -7 42 -10 14 -2 75 -13 135 -25
61 -11 139 -25 175 -31 36 -5 76 -12 90 -14 14 -3 45 -7 70 -10 25 -3 54 -8
65 -10 34 -6 107 -15 170 -21 33 -4 73 -8 89 -11 16 -3 54 -7 85 -9 31 -3 81
-7 111 -10 56 -6 95 -9 285 -21 226 -15 981 -8 1150 11 17 2 66 6 110 10 44 3
96 8 115 10 19 3 58 7 85 10 28 3 84 10 125 15 41 5 95 12 120 15 39 5 180 27
260 40 148 25 438 84 540 109 40 10 157 38 175 42 163 32 894 271 1042 339 17
8 34 15 37 15 6 0 209 84 251 105 32 15 146 67 155 70 39 13 323 155 460 229
47 25 96 51 110 58 22 11 201 114 240 138 32 20 126 75 135 80 16 8 304 198
439 290 92 62 397 295 531 405 323 264 817 741 1001 965 16 19 34 40 40 45 6
6 37 42 70 80 32 39 61 72 64 75 5 5 25 30 85 104 17 21 44 55 60 76 55 68 82
104 164 215 45 61 87 117 94 125 16 19 281 418 323 485 17 28 64 106 104 175
40 69 88 150 105 180 43 72 260 500 312 615 33 75 96 220 134 310 4 11 16 40
27 65 10 25 25 61 32 80 7 19 18 49 25 65 35 80 188 536 233 695 68 236 165
640 186 772 3 21 10 57 15 80 5 24 12 61 15 83 4 23 9 52 11 65 3 14 8 45 11
70 3 25 7 47 9 50 2 3 6 34 10 70 4 36 9 73 11 84 2 10 6 44 9 75 4 31 8 67
10 80 3 14 7 54 11 90 4 36 8 80 10 96 3 30 14 169 20 255 26 375 21 1034 -10
1315 -3 28 -8 82 -11 120 -3 39 -8 84 -10 102 -3 17 -9 71 -15 120 -12 104
-19 157 -25 192 -2 14 -7 44 -9 66 -3 22 -15 94 -26 160 -12 66 -23 134 -26
150 -7 48 -98 461 -109 495 -3 10 -7 27 -9 37 -2 10 -16 63 -31 118 -15 55
-28 107 -30 115 -36 157 -228 708 -337 970 -41 97 -52 124 -107 243 -17 37
-31 70 -31 73 0 18 -254 510 -340 660 -33 56 -60 107 -60 113 0 5 -3 11 -7 13
-5 2 -34 46 -66 98 -32 52 -63 104 -70 114 -129 210 -385 573 -554 786 -293
371 -706 806 -1078 1136 -324 288 -643 527 -1160 868 -11 7 -67 41 -125 75
-58 34 -112 66 -120 71 -8 5 -62 36 -120 68 -348 196 -696 362 -1055 503 -55
22 -109 44 -120 49 -68 30 -560 195 -675 225 -8 2 -49 14 -90 25 -41 12 -91
25 -110 30 -19 5 -71 18 -115 29 -190 48 -454 105 -585 126 -19 3 -57 10 -85
15 -59 11 -85 15 -265 40 -74 10 -162 21 -195 25 -33 3 -76 8 -95 10 -47 5
-138 13 -235 21 -44 3 -98 8 -120 9 -60 6 -624 22 -628 19z m-6363 -12600 c3
-8 2 -12 -4 -9 -6 3 -10 10 -10 16 0 14 7 11 14 -7z m541 -784 c10 -11 16 -20
13 -20 -3 0 -13 9 -23 20 -10 11 -16 20 -13 20 3 0 13 -9 23 -20z m126 -157
c13 -16 12 -17 -3 -4 -10 7 -18 15 -18 17 0 8 8 3 21 -13z m50 -60 c13 -16 12
-17 -3 -4 -10 7 -18 15 -18 17 0 8 8 3 21 -13z m64 -73 c10 -11 16 -20 13 -20
-3 0 -13 9 -23 20 -10 11 -16 20 -13 20 3 0 13 -9 23 -20z m126 -137 c13 -16
12 -17 -3 -4 -10 7 -18 15 -18 17 0 8 8 3 21 -13z m120 -130 c13 -16 12 -17
-3 -4 -10 7 -18 15 -18 17 0 8 8 3 21 -13z m94 -93 c3 -6 -1 -7 -9 -4 -18 7
-21 14 -7 14 6 0 13 -4 16 -10z m70 -70 c10 -11 16 -20 13 -20 -3 0 -13 9 -23
20 -10 11 -16 20 -13 20 3 0 13 -9 23 -20z m46 -47 c13 -16 12 -17 -3 -4 -17
13 -22 21 -14 21 2 0 10 -8 17 -17z m104 -93 c3 -6 -1 -7 -9 -4 -18 7 -21 14
-7 14 6 0 13 -4 16 -10z m40 -40 c10 -11 16 -20 13 -20 -3 0 -13 9 -23 20 -10
11 -16 20 -13 20 3 0 13 -9 23 -20z m100 -90 c10 -11 16 -20 13 -20 -3 0 -13
9 -23 20 -10 11 -16 20 -13 20 3 0 13 -9 23 -20z m66 -57 c13 -17 13 -17 -6
-3 -11 8 -22 16 -24 17 -2 2 0 3 6 3 6 0 17 -8 24 -17z m70 -60 c13 -16 12
-17 -3 -4 -10 7 -18 15 -18 17 0 8 8 3 21 -13z m64 -53 c10 -11 16 -20 13 -20
-3 0 -13 9 -23 20 -10 11 -16 20 -13 20 3 0 13 -9 23 -20z m136 -107 c13 -16
12 -17 -3 -4 -10 7 -18 15 -18 17 0 8 8 3 21 -13z m84 -63 c10 -11 16 -20 13
-20 -3 0 -13 9 -23 20 -10 11 -16 20 -13 20 3 0 13 -9 23 -20z m316 -227 c13
-16 12 -17 -3 -4 -10 7 -18 15 -18 17 0 8 8 3 21 -13z m120 -80 c13 -16 12
-17 -3 -4 -10 7 -18 15 -18 17 0 8 8 3 21 -13z m304 -191 c-3 -3 -11 0 -18 7
-9 10 -8 11 6 5 10 -3 15 -9 12 -12z m70 -40 c-3 -3 -11 0 -18 7 -9 10 -8 11
6 5 10 -3 15 -9 12 -12z"/>
</g>
</svg>
